<svg width="30" height="30" viewBox="0 0 30 30" fill="none" xmlns="http://www.w3.org/2000/svg">
<g clip-path="url(#clip0_4_5)">
<path d="M0.937498 5.625L1.0125 7.25625C0.517809 7.9754 0.2909 8.84522 0.371248 9.71438L1.56562 22.8394C1.65029 23.7711 2.08017 24.6375 2.77087 25.2685C3.46157 25.8996 4.36319 26.2496 5.29875 26.25H16.875V24.375H5.29875C4.83099 24.3746 4.38028 24.1993 4.0351 23.8836C3.68993 23.5679 3.47522 23.1346 3.43312 22.6688L2.23875 9.54375C2.21531 9.28434 2.24617 9.0229 2.32937 8.77608C2.41257 8.52926 2.54628 8.30248 2.72197 8.1102C2.89767 7.91792 3.1115 7.76436 3.34984 7.6593C3.58817 7.55424 3.84578 7.49998 4.10625 7.5H25.8937C26.1542 7.49998 26.4118 7.55424 26.6502 7.6593C26.8885 7.76436 27.1023 7.91792 27.278 8.1102C27.4537 8.30248 27.5874 8.52926 27.6706 8.77608C27.7538 9.0229 27.7847 9.28434 27.7612 9.54375L27.2625 15H29.1469L29.6269 9.71438C29.674 9.19557 29.6126 8.67263 29.4464 8.1789C29.2802 7.68517 29.013 7.23147 28.6618 6.84673C28.3106 6.46199 27.883 6.15465 27.4065 5.9443C26.9299 5.73395 26.4147 5.62521 25.8937 5.625H18.4275C17.433 5.62479 16.4793 5.22956 15.7762 4.52625L14.2237 2.97375C13.5206 2.27044 12.567 1.87521 11.5725 1.875H4.6875C3.69294 1.875 2.73911 2.27009 2.03585 2.97335C1.33259 3.67661 0.937498 4.63044 0.937498 5.625ZM11.5725 3.75C12.0697 3.75011 12.5466 3.94772 12.8981 4.29937L14.2237 5.625H4.10625C3.65625 5.625 3.225 5.70375 2.82562 5.85L2.8125 5.5875C2.82231 5.09675 3.02418 4.62941 3.37476 4.28585C3.72533 3.94229 4.19665 3.7499 4.6875 3.75H11.5725Z" fill="#212529"/>
<path d="M25.3125 18.75C25.5611 18.75 25.7996 18.8488 25.9754 19.0246C26.1512 19.2004 26.25 19.4389 26.25 19.6875V22.5H29.0625C29.3111 22.5 29.5496 22.5988 29.7254 22.7746C29.9012 22.9504 30 23.1889 30 23.4375C30 23.6861 29.9012 23.9246 29.7254 24.1004C29.5496 24.2762 29.3111 24.375 29.0625 24.375H26.25V27.1875C26.25 27.4361 26.1512 27.6746 25.9754 27.8504C25.7996 28.0262 25.5611 28.125 25.3125 28.125C25.0639 28.125 24.8254 28.0262 24.6496 27.8504C24.4738 27.6746 24.375 27.4361 24.375 27.1875V24.375H21.5625C21.3139 24.375 21.0754 24.2762 20.8996 24.1004C20.7238 23.9246 20.625 23.6861 20.625 23.4375C20.625 23.1889 20.7238 22.9504 20.8996 22.7746C21.0754 22.5988 21.3139 22.5 21.5625 22.5H24.375V19.6875C24.375 19.4389 24.4738 19.2004 24.6496 19.0246C24.8254 18.8488 25.0639 18.75 25.3125 18.75Z" fill="#212529"/>
</g>
<defs>
<clipPath id="clip0_4_5">
<rect width="30" height="30" fill="white"/>
</clipPath>
</defs>
</svg>
