<svg width="197" height="44" viewBox="0 0 197 44" fill="none" xmlns="http://www.w3.org/2000/svg">
<path d="M12.1465 26.2559C13.4238 26.2559 14.4609 26.1152 15.2578 25.834C16.7695 25.2949 17.5254 24.293 17.5254 22.8281C17.5254 21.9727 17.1504 21.3105 16.4004 20.8418C15.6504 20.3848 14.4727 19.9805 12.8672 19.6289L10.125 19.0137C7.42969 18.4043 5.56641 17.7422 4.53516 17.0273C2.78906 15.832 1.91602 13.9629 1.91602 11.4199C1.91602 9.09961 2.75977 7.17187 4.44727 5.63672C6.13477 4.10156 8.61328 3.33398 11.8828 3.33398C14.6133 3.33398 16.9395 4.06055 18.8613 5.51367C20.7949 6.95508 21.8086 9.05273 21.9023 11.8066H16.6992C16.6055 10.248 15.9258 9.14062 14.6602 8.48438C13.8164 8.05078 12.7676 7.83398 11.5137 7.83398C10.1191 7.83398 9.00586 8.11523 8.17383 8.67773C7.3418 9.24023 6.92578 10.0254 6.92578 11.0332C6.92578 11.959 7.33594 12.6504 8.15625 13.1074C8.68359 13.4121 9.80859 13.7695 11.5312 14.1797L15.9961 15.252C17.9531 15.7207 19.4297 16.3477 20.4258 17.1328C21.9727 18.3516 22.7461 20.1152 22.7461 22.4238C22.7461 24.791 21.8379 26.7598 20.0215 28.3301C18.2168 29.8887 15.6621 30.668 12.3574 30.668C8.98242 30.668 6.32812 29.9004 4.39453 28.3652C2.46094 26.8184 1.49414 24.6973 1.49414 22.002H6.66211C6.82617 23.1855 7.14844 24.0703 7.62891 24.6562C8.50781 25.7227 10.0137 26.2559 12.1465 26.2559ZM28.26 10.8398V30H23.1799V10.8398H28.26ZM28.26 3.93164V8.55469H23.1799V3.93164H28.26ZM40.647 16.1133C40.2251 15.1875 39.3989 14.7246 38.1684 14.7246C36.7388 14.7246 35.7778 15.1875 35.2856 16.1133C35.0161 16.6406 34.8813 17.4258 34.8813 18.4688V30H29.8013V10.875H34.6704V13.6699C35.2915 12.6738 35.8774 11.9648 36.4282 11.543C37.4009 10.793 38.6606 10.418 40.2075 10.418C41.6723 10.418 42.8559 10.7402 43.7583 11.3848C44.4848 11.9824 45.0356 12.75 45.4106 13.6875C46.0669 12.5625 46.8813 11.7363 47.854 11.209C48.8852 10.6816 50.0337 10.418 51.2993 10.418C52.143 10.418 52.9751 10.582 53.7954 10.9102C54.6157 11.2383 55.3598 11.8125 56.0278 12.6328C56.5669 13.3008 56.9302 14.1211 57.1177 15.0938C57.2348 15.7383 57.2934 16.6816 57.2934 17.9238L57.2583 30H52.1255V17.8008C52.1255 17.0742 52.0083 16.4766 51.7739 16.0078C51.3286 15.1172 50.5083 14.6719 49.313 14.6719C47.9302 14.6719 46.9751 15.2461 46.4477 16.3945C46.1782 17.0039 46.0434 17.7363 46.0434 18.5918V30H40.9985V18.5918C40.9985 17.4551 40.8813 16.6289 40.647 16.1133ZM74.7253 12.8965C76.2722 14.5488 77.0456 16.9746 77.0456 20.1738C77.0456 23.5488 76.2839 26.1211 74.7605 27.8906C73.2487 29.6602 71.2976 30.5449 68.907 30.5449C67.3835 30.5449 66.1179 30.1641 65.1101 29.4023C64.5593 28.9805 64.0202 28.3652 63.4929 27.5566V37.541H58.5359V10.8398H63.3347V13.6699C63.8737 12.8379 64.448 12.1816 65.0573 11.7012C66.1706 10.8457 67.4948 10.418 69.03 10.418C71.2683 10.418 73.1667 11.2441 74.7253 12.8965ZM71.8777 20.4199C71.8777 18.9434 71.5378 17.6367 70.8581 16.5C70.1902 15.3633 69.1003 14.7949 67.5886 14.7949C65.7722 14.7949 64.5241 15.6562 63.8445 17.3789C63.4929 18.293 63.3171 19.4531 63.3171 20.8594C63.3171 23.0859 63.9089 24.6504 65.0925 25.5527C65.7956 26.0801 66.6277 26.3438 67.5886 26.3438C68.9831 26.3438 70.0437 25.8047 70.7702 24.7266C71.5085 23.6484 71.8777 22.2129 71.8777 20.4199ZM77.5498 4.08984H82.5595V30H77.5498V4.08984ZM100.624 24.375C100.495 25.5117 99.9035 26.666 98.8488 27.8379C97.2082 29.7012 94.9113 30.6328 91.9582 30.6328C89.5207 30.6328 87.3703 29.8477 85.507 28.2773C83.6438 26.707 82.7121 24.1523 82.7121 20.6133C82.7121 17.2969 83.55 14.7539 85.2258 12.9844C86.9133 11.2148 89.0988 10.3301 91.7824 10.3301C93.3762 10.3301 94.8117 10.6289 96.0891 11.2266C97.3664 11.8242 98.4211 12.7676 99.2531 14.0566C100.003 15.1934 100.489 16.5117 100.712 18.0117C100.841 18.8906 100.894 20.1562 100.87 21.8086H87.757C87.8273 23.7305 88.4309 25.0781 89.5676 25.8516C90.259 26.332 91.091 26.5723 92.0637 26.5723C93.0949 26.5723 93.9328 26.2793 94.5773 25.6934C94.9289 25.377 95.2395 24.9375 95.509 24.375H100.624ZM95.6672 18.5039C95.5852 17.1797 95.1809 16.1777 94.4543 15.498C93.7395 14.8066 92.8488 14.4609 91.7824 14.4609C90.6223 14.4609 89.7199 14.8242 89.0754 15.5508C88.4426 16.2773 88.0441 17.2617 87.8801 18.5039H95.6672ZM118.46 4.125V30H113.591V27.3457C112.876 28.4824 112.062 29.3086 111.148 29.8242C110.234 30.3398 109.097 30.5977 107.738 30.5977C105.499 30.5977 103.613 29.6953 102.078 27.8906C100.554 26.0742 99.7924 23.748 99.7924 20.9121C99.7924 17.6426 100.542 15.0703 102.042 13.1953C103.554 11.3203 105.57 10.3828 108.089 10.3828C109.249 10.3828 110.281 10.6406 111.183 11.1562C112.085 11.6602 112.818 12.3633 113.38 13.2656V4.125H118.46ZM104.96 20.543C104.96 22.3125 105.312 23.7246 106.015 24.7793C106.706 25.8457 107.761 26.3789 109.179 26.3789C110.597 26.3789 111.675 25.8516 112.414 24.7969C113.152 23.7422 113.521 22.377 113.521 20.7012C113.521 18.3574 112.929 16.6816 111.746 15.6738C111.019 15.0645 110.175 14.7598 109.214 14.7598C107.749 14.7598 106.671 15.3164 105.98 16.4297C105.3 17.5312 104.96 18.9023 104.96 20.543ZM120.511 12.9141C121.836 11.2266 124.109 10.3828 127.332 10.3828C129.429 10.3828 131.293 10.7988 132.922 11.6309C134.55 12.4629 135.365 14.0332 135.365 16.3418V25.1309C135.365 25.7402 135.377 26.4785 135.4 27.3457C135.435 28.002 135.535 28.4473 135.699 28.6816C135.863 28.916 136.109 29.1094 136.437 29.2617V30H130.988C130.836 29.6133 130.73 29.25 130.672 28.9102C130.613 28.5703 130.566 28.1836 130.531 27.75C129.84 28.5 129.043 29.1387 128.14 29.666C127.062 30.2871 125.843 30.5977 124.484 30.5977C122.75 30.5977 121.314 30.1055 120.177 29.1211C119.052 28.125 118.49 26.7188 118.49 24.9023C118.49 22.5469 119.398 20.8418 121.215 19.7871C122.211 19.2129 123.675 18.8027 125.609 18.5566L127.314 18.3457C128.24 18.2285 128.902 18.082 129.3 17.9062C130.015 17.6016 130.373 17.127 130.373 16.4824C130.373 15.6973 130.097 15.1582 129.547 14.8652C129.007 14.5605 128.211 14.4082 127.156 14.4082C125.972 14.4082 125.134 14.7012 124.642 15.2871C124.291 15.7207 124.056 16.3066 123.939 17.0449H119.105C119.211 15.3691 119.679 13.9922 120.511 12.9141ZM124.238 26.3789C124.707 26.7656 125.281 26.959 125.961 26.959C127.039 26.959 128.029 26.6426 128.931 26.0098C129.845 25.377 130.32 24.2227 130.355 22.5469V20.6836C130.039 20.8828 129.716 21.0469 129.388 21.1758C129.072 21.293 128.632 21.4043 128.07 21.5098L126.945 21.7207C125.89 21.9082 125.134 22.1367 124.677 22.4062C123.904 22.8633 123.517 23.5723 123.517 24.5332C123.517 25.3887 123.757 26.0039 124.238 26.3789ZM149.431 11.7188C150.931 12.6797 151.792 14.332 152.015 16.6758H147.005C146.935 16.0312 146.753 15.5215 146.46 15.1465C145.909 14.4668 144.972 14.127 143.648 14.127C142.558 14.127 141.779 14.2969 141.31 14.6367C140.853 14.9766 140.624 15.375 140.624 15.832C140.624 16.4062 140.87 16.8223 141.363 17.0801C141.855 17.3496 143.595 17.8125 146.583 18.4688C148.575 18.9375 150.07 19.6465 151.066 20.5957C152.05 21.5566 152.542 22.7578 152.542 24.1992C152.542 26.0977 151.833 27.6504 150.415 28.8574C149.009 30.0527 146.829 30.6504 143.876 30.6504C140.865 30.6504 138.638 30.0176 137.197 28.752C135.767 27.4746 135.052 25.8516 135.052 23.8828H140.132C140.238 24.7734 140.466 25.4062 140.818 25.7812C141.439 26.4492 142.587 26.7832 144.263 26.7832C145.247 26.7832 146.027 26.6367 146.601 26.3438C147.187 26.0508 147.48 25.6113 147.48 25.0254C147.48 24.4629 147.245 24.0352 146.777 23.7422C146.308 23.4492 144.568 22.9453 141.556 22.2305C139.388 21.6914 137.859 21.0176 136.968 20.209C136.077 19.4121 135.632 18.2637 135.632 16.7637C135.632 14.9941 136.324 13.4766 137.706 12.2109C139.101 10.9336 141.058 10.2949 143.577 10.2949C145.968 10.2949 147.919 10.7695 149.431 11.7188ZM170.607 30H164.56L159.972 21.8086L157.898 23.9707V30H152.976V4.17773H157.898V18.1348L164.138 10.9277H170.343L163.646 18.2578L170.607 30Z" fill="#212529"/>
<g clip-path="url(#clip0_18_9160)">
<path d="M175 15C175 14.2044 175.29 13.4413 175.805 12.8787C176.321 12.3161 177.021 12 177.75 12H188.75C189.479 12 190.179 12.3161 190.695 12.8787C191.21 13.4413 191.5 14.2044 191.5 15V18H194.25C194.979 18 195.679 18.3161 196.195 18.8787C196.71 19.4413 197 20.2044 197 21V33C197 33.7956 196.71 34.5587 196.195 35.1213C195.679 35.6839 194.979 36 194.25 36H183.25C182.521 36 181.821 35.6839 181.305 35.1213C180.79 34.5587 180.5 33.7956 180.5 33V30H177.75C177.021 30 176.321 29.6839 175.805 29.1213C175.29 28.5587 175 27.7956 175 27V15ZM191.5 18H181.875C181.51 18 181.161 18.158 180.903 18.4393C180.645 18.7206 180.5 19.1022 180.5 19.5V30H190.125C190.49 30 190.839 29.842 191.097 29.5607C191.355 29.2794 191.5 28.8978 191.5 28.5V18Z" fill="#212529"/>
<path d="M180.5 19C180.5 18.4477 180.948 18 181.5 18H191.5V29C191.5 29.5523 191.052 30 190.5 30H180.5V19Z" fill="#FF9900"/>
</g>
<defs>
<clipPath id="clip0_18_9160">
<rect width="22" height="24" fill="white" transform="translate(175 12)"/>
</clipPath>
</defs>
</svg>
