<svg width="30" height="30" viewBox="0 0 30 30" fill="none" xmlns="http://www.w3.org/2000/svg">
<g clip-path="url(#clip0_4_11)">
<path d="M8.62618 5.9375C8.62618 5.68886 8.52741 5.4504 8.3516 5.27459C8.17578 5.09877 7.93732 5 7.68868 5C7.44004 5 7.20159 5.09877 7.02577 5.27459C6.84996 5.4504 6.75118 5.68886 6.75118 5.9375V22.4244L4.60243 20.2738C4.4264 20.0977 4.18764 19.9988 3.93868 19.9988C3.68973 19.9988 3.45097 20.0977 3.27493 20.2738C3.0989 20.4498 3 20.6885 3 20.9375C3 21.1865 3.0989 21.4252 3.27493 21.6013L7.02493 25.3494L7.03806 25.3625C7.21408 25.5341 7.45079 25.6293 7.69663 25.6272C7.94246 25.625 8.17751 25.5259 8.35056 25.3513L12.1006 21.6013C12.1877 21.5142 12.2569 21.4109 12.3041 21.2971C12.3513 21.1833 12.3757 21.0613 12.3758 20.9382C12.3759 20.815 12.3517 20.693 12.3046 20.5791C12.2576 20.4653 12.1885 20.3619 12.1015 20.2747C12.0145 20.1875 11.9111 20.1184 11.7973 20.0711C11.6836 20.0239 11.5616 19.9996 11.4384 19.9995C11.3152 19.9994 11.1932 20.0236 11.0794 20.0706C10.9656 20.1177 10.8621 20.1867 10.7749 20.2738L8.62618 22.4244V5.9375ZM15.1887 7.8125C15.1887 7.56386 15.2875 7.3254 15.4633 7.14959C15.6391 6.97377 15.8775 6.875 16.1262 6.875H29.2512C29.4998 6.875 29.7383 6.97377 29.9141 7.14959C30.0899 7.3254 30.1887 7.56386 30.1887 7.8125C30.1887 8.06114 30.0899 8.2996 29.9141 8.47541C29.7383 8.65123 29.4998 8.75 29.2512 8.75H16.1262C15.8775 8.75 15.6391 8.65123 15.4633 8.47541C15.2875 8.2996 15.1887 8.06114 15.1887 7.8125ZM16.1262 12.5C15.8775 12.5 15.6391 12.5988 15.4633 12.7746C15.2875 12.9504 15.1887 13.1889 15.1887 13.4375C15.1887 13.6861 15.2875 13.9246 15.4633 14.1004C15.6391 14.2762 15.8775 14.375 16.1262 14.375H25.5012C25.7498 14.375 25.9883 14.2762 26.1641 14.1004C26.3399 13.9246 26.4387 13.6861 26.4387 13.4375C26.4387 13.1889 26.3399 12.9504 26.1641 12.7746C25.9883 12.5988 25.7498 12.5 25.5012 12.5H16.1262ZM16.1262 18.125C15.8775 18.125 15.6391 18.2238 15.4633 18.3996C15.2875 18.5754 15.1887 18.8139 15.1887 19.0625C15.1887 19.3111 15.2875 19.5496 15.4633 19.7254C15.6391 19.9012 15.8775 20 16.1262 20H21.7512C21.9998 20 22.2383 19.9012 22.4141 19.7254C22.5899 19.5496 22.6887 19.3111 22.6887 19.0625C22.6887 18.8139 22.5899 18.5754 22.4141 18.3996C22.2383 18.2238 21.9998 18.125 21.7512 18.125H16.1262ZM16.1262 23.75C15.8775 23.75 15.6391 23.8488 15.4633 24.0246C15.2875 24.2004 15.1887 24.4389 15.1887 24.6875C15.1887 24.9361 15.2875 25.1746 15.4633 25.3504C15.6391 25.5262 15.8775 25.625 16.1262 25.625H18.0012C18.2498 25.625 18.4883 25.5262 18.6641 25.3504C18.8399 25.1746 18.9387 24.9361 18.9387 24.6875C18.9387 24.4389 18.8399 24.2004 18.6641 24.0246C18.4883 23.8488 18.2498 23.75 18.0012 23.75H16.1262Z" fill="#212529"/>
</g>
<defs>
<clipPath id="clip0_4_11">
<rect width="30" height="30" fill="white"/>
</clipPath>
</defs>
</svg>
